<svg xmlns="http://www.w3.org/2000/svg" viewBox="0 0 939.12 841.14">
	<defs>
		<style>
			.cls-1{fill:#fe7433;} 
		</style>
	</defs>
	<title>
		logo
	</title>
	<g id="Layer_2" data-name="Layer 2">
		<g id="Layer_1-2" data-name="Layer 1">
			<path class="cls-1" d="M652.4,0H286.72a103.88,103.88,0,0,0-90,52L13.92,368.62a103.9,103.9,0,0,0,0,103.9L196.75,789.19a103.88,103.88,0,0,0,90,51.95H652.4a103.89,103.89,0,0,0,90-51.95L925.2,472.52a103.9,103.9,0,0,0,0-103.9L742.37,52A103.89,103.89,0,0,0,652.4,0ZM563.61,690.36H375.51a103.88,103.88,0,0,1-90-52L191.49,475.52a103.9,103.9,0,0,1,0-103.9l94.05-162.89a103.88,103.88,0,0,1,90-51.95h188.1a103.89,103.89,0,0,1,90,51.95l94,162.89a103.9,103.9,0,0,1,0,103.9l-94,162.89A103.89,103.89,0,0,1,563.61,690.36Z" />
			<path class="cls-1" d="M288.74,421l96.33,44v61.27l-145.5-79.87V394.75l145.5-79.87v61.27Z" />
			<path class="cls-1" d="M431.49,593.54H381.05L506.79,247.6h50.43Z" />
			<path class="cls-1" d="M650.54,420.13l-98.18-44.42V314.88l147.19,79.87v51.42L552.36,526.26V465.21Z" />
		</g>
	</g>
</svg>
